<?xml version="1.0" encoding="UTF-8"?>
<svg width="196" height="196" version="1.1" viewBox="0 0 196 196" xml:space="preserve" xmlns="http://www.w3.org/2000/svg">
  <g transform="scale(.81247 1.2308)" style="fill:#333;stroke-width:.94806;stroke:#fff">
    <path d="m38.913 142.93q-7.2956 0-11.673-4.112-4.3773-4.0457-4.3773-11.275 0-2.5203 0.46426-4.709l4.5763-23.279 0.33162-3.3162q0-5.5048-4.112-8.622-4.0457-3.1172-11.474-3.4488l1.7244-9.0863q8.7547-0.33162 14.326-4.3773 5.6375-4.112 6.8976-10.943l4.5763-23.346q1.857-9.2189 8.2241-14.657 6.367-5.4385 15.122-5.4385h17.576l-1.7907 9.2189h-14.127q-6.1681 0-9.3516 3.0509-3.1835 2.9845-4.4437 9.8822l-4.51 22.948q-1.2601 6.4334-6.4334 11.408-5.1732 4.9742-12.402 6.6323v0.13265q5.4385 1.3928 8.7547 5.3059 3.3825 3.8467 3.3825 9.2853 0 2.056-0.33162 3.5815l-4.51 23.014q-0.53059 2.7856-0.53059 4.9079 0 4.311 2.255 6.1681t7.0966 1.857h14.127l-1.7907 9.2189z"/>
    <path d="m160.09 142.93 1.7907-9.2189h14.127q6.0354 0 9.2852-2.9846 3.3162-2.9182 4.6426-9.9485l4.51-23.014q1.2601-6.765 6.4997-11.673 5.2395-4.9742 12.27-6.4997v-0.13265q-5.5712-1.4591-8.821-5.4385-3.2498-3.9794-3.2498-9.1526l0.33161-3.4488 4.51-22.948q0.53059-2.7856 0.53059-4.9079 0-4.3773-2.3213-6.1681-2.3213-1.8571-7.1629-1.8571h-14.127l1.7907-9.2189h17.576q7.4945 0 11.806 4.0457 4.311 4.0457 4.311 11.209 0 2.5203-0.46426 4.8416l-4.5763 23.346-0.33161 3.2498q0 5.3722 3.9794 8.5557t11.607 3.5151l-1.7244 9.0863q-8.6883 0.33162-14.259 4.311-5.5712 3.9794-6.9639 11.076l-4.5763 23.279q-1.6581 8.821-8.1578 14.458-6.4997 5.6375-15.254 5.6375z"/>
  </g>
  <path d="m98 89.882c10.048 0 19.338-0.9439 28.059-2.6429 8.7211-1.8878 15.546-4.5308 20.665-8.1176v10.761c0 2.8317-2.0855 5.6634-6.4461 8.1176-4.3606 2.4541-10.238 4.5307-17.821 5.8522-7.5836 1.3215-15.546 2.2654-24.457 2.2654-8.9107 0-16.874-0.75513-24.457-2.2654-7.5836-1.5103-13.461-3.3981-17.821-5.8522-4.3606-2.4542-6.4461-5.0971-6.4461-8.1176v-10.761c5.1189 3.5868 11.944 6.2298 20.665 8.1176 8.7212 1.699 18.011 2.6429 28.059 2.6429zm0 48.517c10.048 0 19.338-0.94389 28.059-2.6429 8.7211-1.8878 15.546-4.5308 20.665-8.1176v10.761c0 2.8317-2.0855 5.6634-6.4461 8.1176s-10.238 4.5308-17.821 5.8522c-7.5836 1.3215-15.736 2.2654-24.457 2.2654-8.7212 0-16.874-0.75513-24.457-2.2654-7.5836-1.5102-13.461-3.3981-17.821-5.8522-4.3606-2.4542-6.4461-5.0971-6.4461-8.1176v-10.761c5.1189 3.5869 11.944 6.2298 20.665 8.1176 8.7212 1.699 18.011 2.6429 28.059 2.6429zm0-24.164c10.048 0 19.338-0.94389 28.059-2.6429 8.7211-1.699 15.546-4.5308 20.665-8.1176v10.761c0 2.8317-2.0855 5.6634-6.4461 8.1176s-10.238 4.5308-17.821 5.8522c-7.5836 1.5103-15.546 2.2654-24.457 2.2654-8.9107 0-16.874-0.75513-24.457-2.2654-7.5836-1.5103-13.461-3.3981-17.821-5.8522-4.3606-2.4542-6.4461-5.0971-6.4461-8.1176v-10.761c5.1189 3.5869 11.944 6.2298 20.665 8.1176 8.7212 1.8878 18.011 2.6429 28.059 2.6429zm0-72.87c8.7212 0 16.874 0.75513 24.457 2.2654 7.5836 1.5103 13.461 3.3981 17.821 5.8522 4.3606 2.4542 6.4461 5.0971 6.4461 8.1176v8.1176c0 2.8317-2.0855 5.6635-6.4461 8.1176-4.3606 2.4542-10.238 4.5308-17.821 5.8522-7.5836 1.3215-15.546 2.2654-24.457 2.2654-8.9107 0-16.874-0.75513-24.457-2.2654-7.5836-1.5103-13.461-3.3981-17.821-5.8522-4.3606-2.4542-6.4461-5.0971-6.4461-8.1176v-8.1176c0-2.8317 2.0855-5.6635 6.4461-8.1176 4.3606-2.4542 10.238-4.5308 17.821-5.8522 7.5836-1.5103 15.736-2.2654 24.457-2.2654z" style="fill:#e6522c;stroke:#fff"/>
</svg>
