<?xml version="1.0" encoding="UTF-8"?>
<svg width="196" height="196" version="1.1" viewBox="0 0 196 196" xml:space="preserve" xmlns="http://www.w3.org/2000/svg">
<style type="text/css">
	.st0{fill:#333333;}
</style>
<text transform="scale(.81247 1.2308)" x="-1.4119668" y="114.73937" style="fill:#333333;font-family:'Liberation Mono';font-feature-settings:normal;font-size:135.83px;font-style:italic;font-variant-caps:normal;font-variant-ligatures:normal;font-variant-numeric:normal;letter-spacing:0px;line-height:125%;stroke-width:.94806;stroke:#ffffff;word-spacing:0px" xml:space="preserve"><tspan x="-1.4119668" y="114.73937" style="font-family:'Liberation Mono';font-feature-settings:normal;font-size:135.83px;font-style:italic;font-variant-caps:normal;font-variant-ligatures:normal;font-variant-numeric:normal;stroke-width:.94806;stroke:#ffffff">{ }</tspan></text>


<path class="st0" d="m98 89.882c10.048 0 19.338-0.9439 28.059-2.6429 8.7211-1.8878 15.546-4.5308 20.665-8.1176v10.761c0 2.8317-2.0855 5.6634-6.4461 8.1176-4.3606 2.4541-10.238 4.5307-17.821 5.8522-7.5836 1.3215-15.546 2.2654-24.457 2.2654-8.9107 0-16.874-0.75513-24.457-2.2654-7.5836-1.5103-13.461-3.3981-17.821-5.8522-4.3606-2.4542-6.4461-5.0971-6.4461-8.1176v-10.761c5.1189 3.5868 11.944 6.2298 20.665 8.1176 8.7212 1.699 18.011 2.6429 28.059 2.6429zm0 48.517c10.048 0 19.338-0.94389 28.059-2.6429 8.7211-1.8878 15.546-4.5308 20.665-8.1176v10.761c0 2.8317-2.0855 5.6634-6.4461 8.1176s-10.238 4.5308-17.821 5.8522c-7.5836 1.3215-15.736 2.2654-24.457 2.2654-8.7212 0-16.874-0.75513-24.457-2.2654-7.5836-1.5102-13.461-3.3981-17.821-5.8522-4.3606-2.4542-6.4461-5.0971-6.4461-8.1176v-10.761c5.1189 3.5869 11.944 6.2298 20.665 8.1176 8.7212 1.699 18.011 2.6429 28.059 2.6429zm0-24.164c10.048 0 19.338-0.94389 28.059-2.6429 8.7211-1.699 15.546-4.5308 20.665-8.1176v10.761c0 2.8317-2.0855 5.6634-6.4461 8.1176s-10.238 4.5308-17.821 5.8522c-7.5836 1.5103-15.546 2.2654-24.457 2.2654-8.9107 0-16.874-0.75513-24.457-2.2654-7.5836-1.5103-13.461-3.3981-17.821-5.8522-4.3606-2.4542-6.4461-5.0971-6.4461-8.1176v-10.761c5.1189 3.5869 11.944 6.2298 20.665 8.1176 8.7212 1.8878 18.011 2.6429 28.059 2.6429zm0-72.87c8.7212 0 16.874 0.75513 24.457 2.2654 7.5836 1.5103 13.461 3.3981 17.821 5.8522 4.3606 2.4542 6.4461 5.0971 6.4461 8.1176v8.1176c0 2.8317-2.0855 5.6635-6.4461 8.1176-4.3606 2.4542-10.238 4.5308-17.821 5.8522-7.5836 1.3215-15.546 2.2654-24.457 2.2654-8.9107 0-16.874-0.75513-24.457-2.2654-7.5836-1.5103-13.461-3.3981-17.821-5.8522-4.3606-2.4542-6.4461-5.0971-6.4461-8.1176v-8.1176c0-2.8317 2.0855-5.6635 6.4461-8.1176 4.3606-2.4542 10.238-4.5308 17.821-5.8522 7.5836-1.5103 15.736-2.2654 24.457-2.2654z" style="fill:#e6522c;stroke:#fff"/>




</svg>
